<svg xmlns="http://www.w3.org/2000/svg" width="1609.364" height="681.799" viewBox="0 0 1609.364 681.799">
  <g id="Grupo_4" data-name="Grupo 4" transform="translate(90.196 -408.705)">
    <g id="Grupo_1" data-name="Grupo 1" transform="translate(-4067 -95)">
      <path id="Caminho_6" data-name="Caminho 6" d="M360,640h0Z" transform="translate(4149 84.944)" fill="#8fd1db"/>
      <g id="Grupo_1-2" data-name="Grupo 1" transform="translate(3980 512.874)">
        <path id="Caminho_1" data-name="Caminho 1" d="M0,131.711c1058.453-293.528,898.011,55.966,1595.529-27.183,3.682,3.2,0,266.473,0,266.473H0S.475,130.112,0,131.711Z" transform="translate(1.447 -2.931)" fill="#8fd1db" opacity="0.2"/>
        <path id="Caminho_2" data-name="Caminho 2" d="M1596.769,64.2C967.374-114.679,698.981,163.252,1.636,81.658-2.045,84.8,1.636,371,1.636,371H1596.769S1596.294,62.631,1596.769,64.2Z" transform="translate(1.447 -2.931)" fill="#8fd1db" opacity="0.4"/>
        <path id="Caminho_3" data-name="Caminho 3" d="M1519.553,65.668C423.661,133.461,515.977-32.956-78.822,17.2c-3.655,3.168,0,353.8,0,353.8H1519.553S1519.082,64.084,1519.553,65.668Z" transform="translate(80.447 -2.931)" fill="#8fd1db" opacity="0.4"/>
      </g>
      <path id="Caminho_1-2" data-name="Caminho 1" d="M0,131.711c1058.453-293.528,898.011,55.966,1595.529-27.183,3.682,3.2,0,266.473,0,266.473H0S.475,130.112,0,131.711Z" transform="translate(3981.447 509.944)" fill="#8fd1db" opacity="0.2"/>
      <path id="Caminho_2-2" data-name="Caminho 2" d="M1596.769,64.2C967.374-114.679,698.981,163.252,1.636,81.658-2.045,84.8,1.636,371,1.636,371H1596.769S1596.294,62.631,1596.769,64.2Z" transform="translate(3981.447 509.944)" fill="#8fd1db" opacity="0.4"/>
      <path id="Caminho_4" data-name="Caminho 4" d="M1596.769,64.2C967.374-114.679,698.981,163.252,1.636,81.658-2.045,84.8,1.636,371,1.636,371H1596.769S1596.294,62.631,1596.769,64.2Z" transform="translate(3981.447 509.944)" fill="#8fd1db" opacity="0.4"/>
      <path id="Caminho_3-2" data-name="Caminho 3" d="M1519.553,42.9C423.661,111.653,515.977.973-78.822,51.837c-3.655,3.213,0,300.718,0,300.718H1519.553S1519.082,41.293,1519.553,42.9Z" transform="translate(4060.447 509.944)" fill="#8fd1db" opacity="0.4"/>
      <path id="Caminho_1-3" data-name="Caminho 1" d="M0-2.62c689.667-38.057,358.393,242.133,1595.529,0,3.682,3.553,0,431.119,0,431.119H0S.475-4.4,0-2.62Z" transform="translate(3980.447 509.944)" fill="#8fd1db" opacity="0"/>
    </g>
    <g id="Grupo_2" data-name="Grupo 2" transform="matrix(-1, 0.017, -0.017, -1, 1611.477, 1035.05)">
      <path id="Caminho_1-4" data-name="Caminho 1" d="M-.156,66.51C1058.65-99.928,898.392,98.175,1596.229,51c3.686,1.812.208,151.037.208,151.037l-1596.406.1S.318,65.6-.156,66.51Z" transform="translate(95.377 134.357)" fill="#8fd1db" opacity="0.2"/>
      <path id="Caminho_2-3" data-name="Caminho 2" d="M1597.343,32.931C967.48-69.935,699.161,89.958,1.388,43.059c-3.68,1.805.223,166.443.223,166.443l1595.968-.085S1596.867,32.028,1597.343,32.931Z" transform="translate(95.451 126.986)" fill="#8fd1db" opacity="0.4"/>
      <path id="Caminho_3-3" data-name="Caminho 3" d="M1600.7,32.6C504.277,71.311,596.513-23.555,1.438,5.069c-3.655,1.806.275,201.672.275,201.672l1599.222-.094S1600.224,31.7,1600.7,32.6Z" transform="translate(93.885 129.748)" fill="#8fd1db" opacity="0.4"/>
    </g>
    <path id="Caminho_1-5" data-name="Caminho 1" d="M-.148,117.19C1062.077-173.3,901.335,173.6,1601.438,91.681c3.7,3.179.238,264.613.238,264.613L.065,354.809S.327,115.6-.148,117.19Z" transform="matrix(-1, 0.017, -0.017, -1, 1519.003, 1055.696)" fill="#8fd1db" opacity="0.2"/>
    <path id="Caminho_2-4" data-name="Caminho 2" d="M1599.692,59.825C968.894-118.617,700.205,157.368,1.406,75.556c-3.685,3.116.247,287.6.247,287.6l1598.3,1.622S1599.215,58.265,1599.692,59.825Z" transform="matrix(-1, 0.017, -0.017, -1, 1515.881, 1061.077)" fill="#8fd1db" opacity="0.4"/>
    <path id="Caminho_3-4" data-name="Caminho 3" d="M1599.667,59.637C968.871-118.663,700.193,157.228,1.4,75.523-2.286,78.637,1.655,363,1.655,363l1598.283,1.459S1599.19,58.077,1599.667,59.637Z" transform="matrix(-1, 0.017, -0.017, -1, 1515.991, 1053.691)" fill="#8fd1db" opacity="0.4"/>
    <path id="Caminho_4-2" data-name="Caminho 4" d="M1441.46,8.649C454.234,64.63,537.11-30.785,1.327,11.313c-3.285,2.767.82,260.039.82,260.039L1442.3,276.417s-.232-49.075-.464-105.173C1441.528,95.885,1441.215,7.852,1441.46,8.649Z" transform="matrix(-1, 0.017, -0.017, -1, 1357.509, 966.007)" fill="#8fd1db" opacity="0"/>
    <g id="Grupo_3" data-name="Grupo 3" transform="matrix(-1, 0.017, -0.017, -1, 1609.967, 948.523)">
      <path id="Caminho_1-6" data-name="Caminho 1" d="M-.156,16.835c1058.572-44.6,898.35,8.486,1596.033-4.156,3.685.486.208,40.475.208,40.475L.031,53.181S.318,16.592-.156,16.835Z" transform="translate(95.377 134.357)" fill="#8fd1db" opacity="0.2"/>
      <path id="Caminho_2-5" data-name="Caminho 2" d="M1596.99,8.158c-629.723-30.518-897.983,16.919-1595.6,3-3.68.536.223,49.381.223,49.381l1595.616-.025S1596.515,7.89,1596.99,8.158Z" transform="translate(95.451 126.986)" fill="#8fd1db" opacity="0.4"/>
      <path id="Caminho_3-5" data-name="Caminho 3" d="M1600.345,8.867C504.166,19.74,596.381-6.907,1.437,1.133c-3.654.507.275,56.65.275,56.65l1598.87-.026S1599.872,8.614,1600.345,8.867Z" transform="translate(93.885 129.748)" fill="#8fd1db" opacity="0.4"/>
    </g>
  </g>
</svg>
