<svg xmlns="http://www.w3.org/2000/svg" width="2038.938" height="3971.773" viewBox="0 0 2038.938 3971.773">
  <g id="Grupo_1" data-name="Grupo 1" transform="translate(351.362 1481.885)">
    <path id="Caminho_1" data-name="Caminho 1" d="M447.623,143.728a61.032,61.032,0,0,0-22.387-43.946A64.1,64.1,0,0,0,377.044,85.8C358.05,34.208,307.87-.142,251.715,0S145.569,34.762,126.858,86.449a63.709,63.709,0,0,0-11.98-1.124c-34.1,0-62.046,26.44-63.113,59.72C20.933,154.756.027,182.761,0,214.388H0c0,40.263,33.44,72.9,74.684,72.89H429.254c41.24,0,74.674-32.631,74.684-72.89h0C503.921,181.036,480.735,151.944,447.623,143.728Z" transform="translate(-351.362 -71.187)" fill="#8fd1db" opacity="0.31"/>
    <path id="Caminho_2" data-name="Caminho 2" d="M447.623,123.124c-.9-14.6-9.005-28.237-22.387-37.646S394.4,71.729,377.044,73.5C358.05,29.3,307.87-.121,251.715,0S145.569,29.779,126.858,74.057a74.068,74.068,0,0,0-11.98-.963c-34.1,0-62.046,22.649-63.113,51.159C20.933,132.572.027,156.562,0,183.655H0C0,218.146,33.44,246.1,74.684,246.1H429.254c41.24,0,74.674-27.953,74.684-62.441h0C503.921,155.084,480.735,130.162,447.623,123.124Z" transform="translate(1183.638 863.996)" fill="#8fd1db" opacity="0.31"/>
    <path id="Caminho_3" data-name="Caminho 3" d="M255.352,76.6a31.866,31.866,0,0,0-12.771-23.419,38.391,38.391,0,0,0-27.492-7.453C204.254,18.232,175.628-.074,143.594,0S83.041,18.527,72.367,46.072a38.828,38.828,0,0,0-6.834-.6c-19.454,0-35.395,14.09-36,31.825C11.941,82.473.015,97.4,0,114.251H0C0,135.708,19.076,153.1,42.6,153.1H244.873c23.526,0,42.6-17.389,42.6-38.844h0C287.468,96.478,274.241,80.974,255.352,76.6Z" transform="translate(1370.098 1033.996)" fill="#8fd1db" opacity="0.31"/>
    <path id="Caminho_4" data-name="Caminho 4" d="M447.623,143.728a61.032,61.032,0,0,0-22.387-43.946A64.1,64.1,0,0,0,377.044,85.8C358.05,34.208,307.87-.142,251.715,0S145.569,34.762,126.858,86.449a63.709,63.709,0,0,0-11.98-1.124c-34.1,0-62.046,26.44-63.113,59.72C20.933,154.756.027,182.761,0,214.388H0c0,40.263,33.44,72.9,74.684,72.89H429.254c41.24,0,74.674-32.631,74.684-72.89h0C503.921,181.036,480.735,151.944,447.623,143.728Z" transform="translate(-186.362 1624.813)" fill="#8fd1db" opacity="0.31"/>
    <path id="Caminho_5" data-name="Caminho 5" d="M447.623,143.728a61.032,61.032,0,0,0-22.387-43.946A64.1,64.1,0,0,0,377.044,85.8C358.05,34.208,307.87-.142,251.715,0S145.569,34.762,126.858,86.449a63.709,63.709,0,0,0-11.98-1.124c-34.1,0-62.046,26.44-63.113,59.72C20.933,154.756.027,182.761,0,214.388H0c0,40.263,33.44,72.9,74.684,72.89H429.254c41.24,0,74.674-32.631,74.684-72.89h0C503.921,181.036,480.735,151.944,447.623,143.728Z" transform="translate(1093.638 2162.813)" fill="#8fd1db" opacity="0.31"/>
    <path id="Caminho_6" data-name="Caminho 6" d="M34.523.123C53.59.191,69.1,16.062,69.169,35.573s-15.334,35.272-34.4,35.2S.191,54.838.123,35.327,15.457.055,34.523.123Z" transform="translate(-33.037 -2.44) rotate(-81.51)" fill="#8fd1db" opacity="0.3"/>
    <path id="Caminho_7" data-name="Caminho 7" d="M34.523.123C53.59.191,69.1,16.062,69.169,35.573s-15.334,35.272-34.4,35.2S.191,54.838.123,35.327,15.457.055,34.523.123Z" transform="translate(1526.963 573.56) rotate(-81.51)" fill="#8fd1db" opacity="0.3"/>
    <path id="Caminho_8" data-name="Caminho 8" d="M34.523.123C53.59.191,69.1,16.062,69.169,35.573s-15.334,35.272-34.4,35.2S.191,54.838.123,35.327,15.457.055,34.523.123Z" transform="translate(24.963 1653.561) rotate(-81.51)" fill="#8fd1db" opacity="0.3"/>
    <path id="Caminho_9" data-name="Caminho 9" d="M34.523.123C53.59.191,69.1,16.062,69.169,35.573s-15.334,35.272-34.4,35.2S.191,54.838.123,35.327,15.457.055,34.523.123Z" transform="translate(-73.037 2145.56) rotate(-81.51)" fill="#8fd1db" opacity="0.3"/>
    <path id="Caminho_10" data-name="Caminho 10" d="M34.523.123C53.59.191,69.1,16.062,69.169,35.573s-15.334,35.272-34.4,35.2S.191,54.838.123,35.327,15.457.055,34.523.123Z" transform="translate(1433.963 2479.56) rotate(-81.51)" fill="#8fd1db" opacity="0.3"/>
    <path id="Caminho_11" data-name="Caminho 11" d="M21.3.073c11.762.04,21.33,9.831,21.37,21.868A21.375,21.375,0,0,1,21.444,43.663C9.681,43.622.114,33.832.073,21.795A21.375,21.375,0,0,1,21.3.073Z" transform="translate(1542.311 -1439.662) rotate(-81.81)" fill="#8fd1db" opacity="0.3"/>
    <path id="Caminho_12" data-name="Caminho 12" d="M21.3.073c11.762.04,21.33,9.831,21.37,21.868A21.375,21.375,0,0,1,21.444,43.663C9.681,43.622.114,33.832.073,21.795A21.375,21.375,0,0,1,21.3.073Z" transform="translate(-57.689 437.338) rotate(-81.81)" fill="#8fd1db" opacity="0.3"/>
    <path id="Caminho_13" data-name="Caminho 13" d="M21.3.073c11.762.04,21.33,9.831,21.37,21.868A21.375,21.375,0,0,1,21.444,43.663C9.681,43.622.114,33.832.073,21.795A21.375,21.375,0,0,1,21.3.073Z" transform="translate(1493.311 606.338) rotate(-81.81)" fill="#8fd1db" opacity="0.3"/>
    <path id="Caminho_14" data-name="Caminho 14" d="M21.3.073c11.762.04,21.33,9.831,21.37,21.868A21.375,21.375,0,0,1,21.444,43.663C9.681,43.622.114,33.832.073,21.795A21.375,21.375,0,0,1,21.3.073Z" transform="translate(1296.311 1177.337) rotate(-81.81)" fill="#8fd1db" opacity="0.3"/>
    <path id="Caminho_15" data-name="Caminho 15" d="M21.3.073c11.762.04,21.33,9.831,21.37,21.868A21.375,21.375,0,0,1,21.444,43.663C9.681,43.622.114,33.832.073,21.795A21.375,21.375,0,0,1,21.3.073Z" transform="translate(238.311 1930.337) rotate(-81.81)" fill="#8fd1db" opacity="0.3"/>
    <path id="Caminho_16" data-name="Caminho 16" d="M21.3.073c11.762.04,21.33,9.831,21.37,21.868A21.375,21.375,0,0,1,21.444,43.663C9.681,43.622.114,33.832.073,21.795A21.375,21.375,0,0,1,21.3.073Z" transform="translate(1046.311 2363.337) rotate(-81.81)" fill="#8fd1db" opacity="0.3"/>
  </g>
</svg>
