<svg id="OBJECTS" xmlns="http://www.w3.org/2000/svg" width="503.938" height="459.565" viewBox="0 0 503.938 459.565">
  <path id="Caminho_198" data-name="Caminho 198" d="M447.623,143.728a61.032,61.032,0,0,0-22.387-43.946A64.1,64.1,0,0,0,377.044,85.8C358.05,34.208,307.87-.142,251.715,0S145.569,34.762,126.858,86.449a63.709,63.709,0,0,0-11.98-1.124c-34.1,0-62.046,26.44-63.113,59.72C20.933,154.756.027,182.761,0,214.388H0c0,40.263,33.44,72.9,74.684,72.89H429.254c41.24,0,74.674-32.631,74.684-72.89h0C503.921,181.036,480.735,151.944,447.623,143.728Z" transform="translate(0 -0.004)" fill="#8fd1db" opacity="0.31"/>
  <path id="Caminho_294" data-name="Caminho 294" d="M21.3.073c11.762.04,21.33,9.831,21.37,21.868A21.375,21.375,0,0,1,21.444,43.663C9.681,43.622.114,33.832.073,21.795A21.375,21.375,0,0,1,21.3.073Z" transform="translate(350.673 73.52) rotate(-81.81)" fill="#8fd1db" opacity="0.3"/>
  <path id="Caminho_293" data-name="Caminho 293" d="M34.523.123C53.59.191,69.1,16.062,69.169,35.573s-15.334,35.272-34.4,35.2S.191,54.838.123,35.327,15.457.055,34.523.123Z" transform="translate(99.325 76.743) rotate(-81.51)" fill="#8fd1db" opacity="0.3"/>
  <ellipse id="Elipse_6" data-name="Elipse 6" cx="227.322" cy="16.155" rx="227.322" ry="16.155" transform="translate(39.687 427.254)" fill="#f8f8f8" opacity="0.9"/>
  <path id="Caminho_199" data-name="Caminho 199" d="M172.879,20.879H133.763V11.813a2.756,2.756,0,0,0-.8-2.033,2.9,2.9,0,0,0-2.056-.85h-.594a2.827,2.827,0,0,0-2.86,2.792v9.066h-38.5a3.286,3.286,0,0,0-3.325,3.246V24.7a3.286,3.286,0,0,0,3.325,3.246h38.5V119.1h-5.312a2.721,2.721,0,1,0,0,5.44h5.312v227.21a2.827,2.827,0,0,0,2.86,2.792h.594a2.827,2.827,0,0,0,2.86-2.792V124.5h4.959a2.721,2.721,0,1,0,0-5.44h-4.959V28.041h39.116A3.286,3.286,0,0,0,176.2,24.8v-.671a3.286,3.286,0,0,0-3.325-3.246Z" transform="translate(88.447 59.459)" fill="#bdbdbb"/>
  <path id="Caminho_200" data-name="Caminho 200" d="M158.458,219.381H92.93v-1.5a21.772,21.772,0,0,1,22.028-21.486h21.471a21.772,21.772,0,0,1,22.028,21.486Z" transform="translate(94.714 211.898)" fill="#bdbdbb"/>
  <path id="Caminho_201" data-name="Caminho 201" d="M111.142,21.273a2.62,2.62,0,0,1-2.434-1.2,2.487,2.487,0,0,1,0-2.661,2.62,2.62,0,0,1,2.434-1.2,2.534,2.534,0,0,1,0,5.059Zm0-3.246a.734.734,0,0,0-.524.2.7.7,0,0,0-.219.507.718.718,0,0,0,.329.722.758.758,0,0,0,.81,0,.719.719,0,0,0,.329-.722.7.7,0,0,0-.191-.536.733.733,0,0,0-.533-.226Z" transform="translate(107.911 65.375)" fill="#a8a8a8"/>
  <path id="Caminho_202" data-name="Caminho 202" d="M116,21.518h-7.745a1.109,1.109,0,0,1-.782-.32,1.056,1.056,0,0,1-.314-.768h0a1.083,1.083,0,0,1,1.1-1.07H116a1.1,1.1,0,0,1,1.114,1.07h0A1.1,1.1,0,0,1,116,21.518Z" transform="translate(106.914 67.94)" fill="#a8a8a8"/>
  <path id="Caminho_203" data-name="Caminho 203" d="M98.389,32.451a.918.918,0,0,1-.929-.907V18.181A1.4,1.4,0,0,0,96.049,16.8h-2.34a.907.907,0,1,1,0-1.813h2.34a3.231,3.231,0,0,1,3.269,3.191V31.544A.918.918,0,0,1,98.389,32.451Z" transform="translate(94.586 64.387)" fill="#a8a8a8"/>
  <path id="Caminho_204" data-name="Caminho 204" d="M94.318,23.68h17.961a7.343,7.343,0,0,1,7.429,7.253V48.466a7.276,7.276,0,0,1-5.256,6.926v2.484A8.01,8.01,0,0,1,112,63.609a8.408,8.408,0,0,1-5.888,2.355H100.54a8.2,8.2,0,0,1-8.284-8.1v-2.5A7.276,7.276,0,0,1,87,48.43V30.9A7.341,7.341,0,0,1,94.318,23.68Z" transform="translate(89.63 71.453)" fill="#fffbf7"/>
  <path id="Caminho_205" data-name="Caminho 205" d="M94.584,25.57h15.063a6.113,6.113,0,0,1,6.185,6.038V46.295a6.058,6.058,0,0,1-4.4,5.784v2.1a6.884,6.884,0,0,1-6.947,6.781H99.747A6.865,6.865,0,0,1,92.8,54.182V52.1a6.076,6.076,0,0,1-4.421-5.8V31.608a6.132,6.132,0,0,1,6.2-6.038Z" transform="translate(90.813 72.99)" fill="#f3e7e0" opacity="0.22"/>
  <rect id="Retângulo_4" data-name="Retângulo 4" width="15.212" height="5.712" transform="translate(185.323 104.272)" fill="#fffbf7"/>
  <rect id="Retângulo_5" data-name="Retângulo 5" width="9.361" height="1.142" transform="translate(188.239 106.556)" fill="#f3e7e0" opacity="0.58"/>
  <rect id="Retângulo_6" data-name="Retângulo 6" width="2.34" height="5.712" transform="translate(191.749 133.972)" fill="#fffbf7"/>
  <path id="Caminho_206" data-name="Caminho 206" d="M95.14,25.452a1.175,1.175,0,0,0,1.17,1.142,1.143,1.143,0,1,0-1.17-1.142Z" transform="translate(96.609 71.965)" fill="#f3e7e0" opacity="0.58"/>
  <rect id="Retângulo_7" data-name="Retângulo 7" width="2.34" height="5.712" transform="translate(191.749 133.972)" fill="#f3e7e0" opacity="0.58"/>
  <path id="Caminho_207" data-name="Caminho 207" d="M98.569,29.562A3.231,3.231,0,0,1,95.3,26.371a.929.929,0,0,1,1.857,0,1.412,1.412,0,0,0,2.823,0V24.087a.929.929,0,0,1,1.857,0v2.285A3.231,3.231,0,0,1,98.569,29.562Z" transform="translate(96.746 71.047)" fill="#a8a8a8"/>
  <path id="Caminho_208" data-name="Caminho 208" d="M114.429,96.843H113.5v-15.7a5.507,5.507,0,0,0-5.572-5.44h-4.848A7.214,7.214,0,0,1,95.8,68.594V48.25h.929V68.594a6.278,6.278,0,0,0,6.352,6.2h4.848a6.425,6.425,0,0,1,6.5,6.346Z" transform="translate(97.175 91.433)" fill="#fffbf7"/>
  <path id="Caminho_209" data-name="Caminho 209" d="M107.8,79.365h-1.579a1.11,1.11,0,0,1-1.077-.816l-.557-2.14a1.086,1.086,0,0,1,.212-.938,1.143,1.143,0,0,1,.884-.422h2.656a1.143,1.143,0,0,1,.884.422,1.086,1.086,0,0,1,.212.938l-.557,2.14a1.073,1.073,0,0,1-1.077.816Z" transform="translate(104.68 113.226)" fill="#bfba13"/>
  <path id="Caminho_210" data-name="Caminho 210" d="M104.6,72.738h5.572a1.091,1.091,0,0,0,.78-.308,1.039,1.039,0,0,0,.315-.762h0a1.057,1.057,0,0,0-.314-.768,1.109,1.109,0,0,0-.782-.32H104.6a1.1,1.1,0,0,0-1.114,1.088h0a1.057,1.057,0,0,0,.328.763,1.11,1.11,0,0,0,.787.307Z" transform="translate(103.768 109.592)" fill="#a8a8a8"/>
  <path id="Caminho_211" data-name="Caminho 211" d="M105.58,71.9a1.654,1.654,0,1,0,1.653-1.614A1.634,1.634,0,0,0,105.58,71.9Z" transform="translate(105.56 109.356)" fill="#757573"/>
  <path id="Caminho_212" data-name="Caminho 212" d="M125.64,184.21v50.805h11.181l6.111-50.805Z" transform="translate(122.758 201.994)" fill="#0b5478"/>
  <path id="Caminho_213" data-name="Caminho 213" d="M163.35,184.21v50.805h11.181l6.111-50.805Z" transform="translate(155.089 201.994)" fill="#0b4360"/>
  <path id="Caminho_214" data-name="Caminho 214" d="M208.553,184.21v50.805H197.391L191.28,184.21Z" transform="translate(179.035 201.994)" fill="#0b5478"/>
  <path id="Caminho_215" data-name="Caminho 215" d="M244.3,184.21v50.805H233.139L227.01,184.21Z" transform="translate(209.669 201.994)" fill="#0b4360"/>
  <path id="Caminho_216" data-name="Caminho 216" d="M227.356,99.471l49.981.979c10.178.2,17.589,11.876,15.193,23.988l-25.279,128.5-80.442.816,23.718-137.8C212.2,106.216,219.258,99.326,227.356,99.471Z" transform="translate(175.203 133.083)" fill="#097ab3"/>
  <path id="Caminho_217" data-name="Caminho 217" d="M161.818,135.487l56.909-.907a12.679,12.679,0,0,1,9.994,4.575,12.036,12.036,0,0,1,2.432,10.511l-18.221,75.048-80.442.49,17.942-80.614a11.746,11.746,0,0,1,11.386-9.1Z" transform="translate(128.631 161.635)" fill="#148fcc"/>
  <path id="Caminho_218" data-name="Caminho 218" d="M171.856,135.487l56.891-.907a12.679,12.679,0,0,1,9.994,4.575,12.036,12.036,0,0,1,2.432,10.511l-18.221,75.048-80.442.49,17.942-80.614A11.765,11.765,0,0,1,171.856,135.487Z" transform="translate(137.222 161.635)" fill="#097ab3"/>
  <path id="Caminho_219" data-name="Caminho 219" d="M254.628,207.85H121.66v-9.592c.01-23.371,19.41-42.318,43.351-42.338h89.6Z" transform="translate(119.346 178.989)" fill="#148fcc"/>
  <path id="Caminho_220" data-name="Caminho 220" d="M272.244,99.692A24.89,24.89,0,0,0,250.438,87H201.961a24.838,24.838,0,0,0-23.031,15.194h0L165,131.967l8.172,2.3,17.7,4.986,1.857.508h0l1.486,50.225a3.338,3.338,0,0,0,.846,2.584,3.508,3.508,0,0,0,2.516,1.151h57.337c2.136,0,3.232-1.451,3.269-3.518l1.542-51.349,4.755-1.342,17.719-4.986,1.987-.562S274.138,103.137,272.244,99.692Z" transform="translate(156.504 122.944)" fill="#fff719"/>
  <path id="Caminho_221" data-name="Caminho 221" d="M214.54,164.46h6.389V120.309L214.54,108.36Z" transform="translate(198.978 140.314)" fill="#bfba13"/>
  <path id="Caminho_222" data-name="Caminho 222" d="M132.751,127.14a8.256,8.256,0,0,0,4.066,11.111,8.635,8.635,0,0,0,11.379-3.975,8.256,8.256,0,0,0-4.078-11.107,8.635,8.635,0,0,0-11.367,3.971" transform="translate(128.148 151.706)" fill="#b31222"/>
  <path id="Caminho_223" data-name="Caminho 223" d="M211.6,147.774a9.313,9.313,0,0,0,1.133-3.3l8.915-26.418-17.7-4.986-7.782,23.046L153.91,139.47l-3.585-1.65-5.256-2.448a2.237,2.237,0,0,0-2.879.907h0a2.122,2.122,0,0,0,.464,2.684l1.672,1.6-1.374.29a7.108,7.108,0,0,1-7.169-2.629,3.81,3.81,0,0,0-5.256-.671,3.6,3.6,0,0,0-.687,5.131l6,7.253a4.172,4.172,0,0,0,3.715,1.487l12.3.943a4.97,4.97,0,0,0,1.857.344l49.071.091a10.369,10.369,0,0,0,4.235-.907,7.143,7.143,0,0,0,4.588-4.116Z" transform="translate(125.692 144.144)" fill="#ffbca9"/>
  <path id="Caminho_224" data-name="Caminho 224" d="M263.3,112.11,245.577,117.1l7,20.616-27.21,1.251h0l-27.712,1.106a1.529,1.529,0,0,0-1.542.4l-8.692,9.066a1.409,1.409,0,0,0,.093,2.049l.279.272a1.512,1.512,0,0,0,2.1,0l5.145-5.44.446.4L189.8,152.78a1.426,1.426,0,0,0,0,2.049l.3.272a1.512,1.512,0,0,0,2.1,0l5.572-5.947.427.4-5.108,5.44a1.426,1.426,0,0,0,0,2.049l.3.272a1.512,1.512,0,0,0,2.1,0l5.089-5.349.947.87-2.8,2.684a1.641,1.641,0,0,0,.869,2.861,1.7,1.7,0,0,0,1.416-.45l2.972-2.829,4.569-1.4a23.557,23.557,0,0,1,8.1-1.015c12.351.653,49.369,2.049,49.369,2.049a7.831,7.831,0,0,0,5.678-2.142,7.454,7.454,0,0,0,2.327-5.491C274.273,145.4,263.3,112.11,263.3,112.11Z" transform="translate(175.388 143.363)" fill="#ffbca9"/>
  <path id="Caminho_225" data-name="Caminho 225" d="M133.582,206.057a7.371,7.371,0,0,1-1.672.635l.186.163c6.519,6.473,14.543,4.533,18.574,4.207l3.715-7.416-16.493-6.255C135.978,201.234,133.823,205.749,133.582,206.057Z" transform="translate(128.134 212.712)" fill="#ffbca9"/>
  <path id="Caminho_226" data-name="Caminho 226" d="M168.4,140.016A16.01,16.01,0,0,0,152.6,152.709L134.47,243.658l1.114.417,16.493,6.255,2.3.888,27.712-80.233h59.7l.483-31.005Z" transform="translate(130.329 166.027)" fill="#212322"/>
  <path id="Caminho_227" data-name="Caminho 227" d="M146.764,203.478l-.186-.163-.947-.907a3.178,3.178,0,0,0-3.715-.471l-.724.435a19.3,19.3,0,0,1-14.395,1.7l-3.715-.979a7.156,7.156,0,0,0-8.3,3.626l49.183,13.345a.671.671,0,0,1,.5.725v.145a1.306,1.306,0,0,0,.2-.49l1.022-5.44,1.1-6.2a.909.909,0,0,0-.216-.769.958.958,0,0,0-.749-.318h-.669C161.325,208.011,153.3,209.951,146.764,203.478Z" transform="translate(113.448 216.088)" fill="#212322"/>
  <path id="Caminho_228" data-name="Caminho 228" d="M164.727,217.735,115.544,204.39h0a.708.708,0,0,0-.854.471l-.65,2.3c0,.344.111.725.929.943l49.61,13.472a1.227,1.227,0,0,0,.427-.689l.3-2.248V218.5a.673.673,0,0,0-.576-.761Z" transform="translate(112.813 218.386)" fill="#1a1c1b"/>
  <path id="Caminho_229" data-name="Caminho 229" d="M150.87,208.22c7.819,4.08,14.859.308,18.425-1l1.114-5.893H152.319C151.8,203.868,151.26,206.389,150.87,208.22Z" transform="translate(144.39 215.916)" fill="#ffbca9"/>
  <path id="Caminho_230" data-name="Caminho 230" d="M185.431,140.016a15.973,15.973,0,0,0-15.806,12.692l-19.075,98.51h22.121l26.43-80.233h29.383l7.244-31.005Z" transform="translate(144.115 166.027)" fill="#303331"/>
  <path id="Caminho_231" data-name="Caminho 231" d="M164.879,205.756l-.539-.272-1.393-.743a3.177,3.177,0,0,0-3.715.508l-.576.562a19.143,19.143,0,0,1-13.41,5.44h-3.715a7.053,7.053,0,0,0-7,5.639l51.04.145a.7.7,0,0,1,.687.58v.145a1.24,1.24,0,0,0,0-.526l-.5-5.548-.631-6.255a.939.939,0,0,0-.423-.7.985.985,0,0,0-.821-.119l-.613.218C179.664,206.065,172.7,209.836,164.879,205.756Z" transform="translate(130.38 218.379)" fill="#303331"/>
  <path id="Caminho_232" data-name="Caminho 232" d="M185.929,211.375l-51.04-.145H134.8a.7.7,0,0,0-.5.19.663.663,0,0,0-.208.481v2.375c0,.381.316.689,1.152.689l51.486.145a1.443,1.443,0,0,0,.223-.762l-.316-2.248v-.145a.7.7,0,0,0-.706-.58Z" transform="translate(130.003 223.966)" fill="#232423"/>
  <path id="Caminho_233" data-name="Caminho 233" d="M223.54,51.9h-2.229a2.985,2.985,0,0,1,.149-.363c.762-2.266-1.393-4.479-4.346-4.479H201.586c-11.4,0-16.716,1.813-16.716,10.444V69.725l1-.181v19.6a5.764,5.764,0,0,0,5.832,5.693h31.241a5.764,5.764,0,0,0,5.832-5.693V67.622l1.43-8.594a6.212,6.212,0,0,0-1.636-5.077A6.542,6.542,0,0,0,223.54,51.9Z" transform="translate(173.54 90.465)" fill="#f48a5b"/>
  <path id="Caminho_234" data-name="Caminho 234" d="M228.718,70.864l-.892,5.44a.486.486,0,0,1-.929,0L218.6,53.33A28.886,28.886,0,0,1,202.6,61.58l-13,2.393v6.89h-.5a5.782,5.782,0,0,0-5.851,5.712v.616A5.782,5.782,0,0,0,189.1,82.9h.5v7.633a14.03,14.03,0,0,0,9.9,13.472v18.821a9.968,9.968,0,0,0,10.085,9.846h2.545a9.472,9.472,0,0,0,9.565-9.338v-20.87a14.023,14.023,0,0,0,6.575-11.913V82.921h.149a5.8,5.8,0,0,0,5.869-5.712v-.616a5.755,5.755,0,0,0-5.572-5.73Z" transform="translate(172.151 95.564)" fill="#ffbca9"/>
  <path id="Caminho_235" data-name="Caminho 235" d="M195.928,81.86a13.427,13.427,0,0,1-3.938-.58V86.9l15.6-5.077h-.724Z" transform="translate(179.644 118.293)" fill="#f19981"/>
  <path id="Caminho_236" data-name="Caminho 236" d="M193.489,78.382h-.13a.268.268,0,0,1-.093-.363,3.084,3.084,0,0,1,5.256,0,.267.267,0,0,1,.055.3.281.281,0,0,1-.52-.032,2.538,2.538,0,0,0-4.346,0A.263.263,0,0,1,193.489,78.382Z" transform="translate(180.708 114.446)" fill="#f19981"/>
  <path id="Caminho_237" data-name="Caminho 237" d="M190.839,69.206h0a1.046,1.046,0,0,1-1.059-1.034V66.124a1,1,0,0,1,.3-.736,1.053,1.053,0,0,1,.754-.3h0a1.053,1.053,0,0,1,.742.3,1,1,0,0,1,.3.73v2.049a1.046,1.046,0,0,1-1.04,1.034Z" transform="translate(177.749 105.127)" fill="#302f3f"/>
  <path id="Caminho_238" data-name="Caminho 238" d="M199.48,69.206h0a1.046,1.046,0,0,1-1.04-1.034V66.124a1,1,0,0,1,.3-.73,1.053,1.053,0,0,1,.742-.3h0a1.046,1.046,0,0,1,1.059,1.034v2.049a1.065,1.065,0,0,1-1.059,1.034Z" transform="translate(185.174 105.127)" fill="#302f3f"/>
  <path id="Caminho_239" data-name="Caminho 239" d="M201.435,71.456h0a.259.259,0,0,1,.166.123.249.249,0,0,1,.02.2,4.817,4.817,0,0,1-5.721,3.445.271.271,0,0,1-.186-.326.261.261,0,0,1,.316-.181,4.322,4.322,0,0,0,3.2-.519,4.139,4.139,0,0,0,1.885-2.582.237.237,0,0,1,.121-.15A.247.247,0,0,1,201.435,71.456Z" transform="translate(182.83 110.293)" fill="#f19981"/>
  <path id="Caminho_240" data-name="Caminho 240" d="M194.109,63.721a2.505,2.505,0,0,1-1.226.671c-.483.163-.947.345-1.337.508a14.039,14.039,0,0,0-1.282.635,2.569,2.569,0,0,1-1.337.417c-.427,0-.8-.562-.687-1.432a3.535,3.535,0,0,1,2.117-2.593,3.318,3.318,0,0,1,3.25.272C194.276,62.742,194.369,63.376,194.109,63.721Z" transform="translate(176.411 102.308)" fill="#f48a5b"/>
  <path id="Caminho_241" data-name="Caminho 241" d="M203.065,65.7a2.449,2.449,0,0,1-1.3-.49c-.427-.254-.873-.49-1.263-.689a12.411,12.411,0,0,0-1.3-.58,2.422,2.422,0,0,1-1.17-.725c-.241-.363,0-.961.706-1.414a3.8,3.8,0,0,1,3.418,0,3.139,3.139,0,0,1,1.857,2.629C203.976,65.229,203.511,65.683,203.065,65.7Z" transform="translate(184.746 102.123)" fill="#f48a5b"/>
  <path id="Caminho_242" data-name="Caminho 242" d="M191.183,68.233a3.481,3.481,0,0,1-1.857-.49.25.25,0,0,1,0-.363.284.284,0,0,1,.371,0,3.376,3.376,0,0,0,3.25,0,.3.3,0,0,1,.371.127.269.269,0,0,1-.13.345A4.438,4.438,0,0,1,191.183,68.233Z" transform="translate(177.293 106.934)" fill="#f19981"/>
  <path id="Caminho_243" data-name="Caminho 243" d="M199.893,68.233a3.481,3.481,0,0,1-1.857-.49.25.25,0,0,1,0-.363.284.284,0,0,1,.371,0,3.414,3.414,0,0,0,3.269,0,.282.282,0,0,1,.353.127.248.248,0,0,1,.018.195.255.255,0,0,1-.13.15A4.514,4.514,0,0,1,199.893,68.233Z" transform="translate(184.761 106.934)" fill="#f19981"/>
  <path id="Caminho_244" data-name="Caminho 244" d="M199.278,76.529h-3.715a3.047,3.047,0,0,1-3.083-3.01V72.83a1.266,1.266,0,0,1,1.263-1.251,1.768,1.768,0,0,0,1.246-.493,1.684,1.684,0,0,0,.518-1.212v-6.4a.26.26,0,0,1,.52,0v6.4a2.258,2.258,0,0,1-2.285,2.23.734.734,0,0,0-.743.725v.689a2.533,2.533,0,0,0,2.563,2.5h3.715a.254.254,0,1,1,0,.508Z" transform="translate(180.064 103.606)" fill="#f19981"/>
  <path id="Caminho_245" data-name="Caminho 245" d="M184.128,68.185a.257.257,0,0,1-.26-.254,3.572,3.572,0,0,1,.955-2.79,3.757,3.757,0,0,1,2.76-1.181.254.254,0,1,1,0,.508,3.286,3.286,0,0,0-2.386,1.043,3.126,3.126,0,0,0-.828,2.42.256.256,0,0,1-.242.254Z" transform="translate(172.666 104.208)" fill="#f19981"/>
  <path id="Caminho_246" data-name="Caminho 246" d="M211.519,68.185a.276.276,0,0,1-.279-.254,3.106,3.106,0,0,0-.79-2.393,3.264,3.264,0,0,0-2.331-1.07.254.254,0,1,1,0-.508,3.757,3.757,0,0,1,2.76,1.181,3.572,3.572,0,0,1,.955,2.79.251.251,0,0,1-.095.2A.265.265,0,0,1,211.519,68.185Z" transform="translate(193.25 104.208)" fill="#f19981"/>
  <path id="Caminho_247" data-name="Caminho 247" d="M215.436,135.487l56.909-.907a12.7,12.7,0,0,1,9.985,4.582,12.054,12.054,0,0,1,2.441,10.5l-18.221,75.048-80.461.49,17.961-80.614A11.746,11.746,0,0,1,215.436,135.487Z" transform="translate(174.586 161.635)" fill="#148fcc"/>
  <path id="Caminho_248" data-name="Caminho 248" d="M302.616,134.581l-56.909.907a11.748,11.748,0,0,0-11.386,9.066l-6.389,28.685H198.326c-14.269,0-25.836,11.292-25.836,25.221v26.708h63.837v-.127l60.494-.363,18.221-75.048a12.036,12.036,0,0,0-2.45-10.486A12.679,12.679,0,0,0,302.616,134.581Z" transform="translate(162.926 161.635)" fill="#097ab3"/>
  <path id="Caminho_249" data-name="Caminho 249" d="M115.489,96.843h-.929v-15.7a6.425,6.425,0,0,1,6.5-6.346h4.848a6.278,6.278,0,0,0,6.352-6.2V48.25h.929V68.594a7.214,7.214,0,0,1-7.281,7.108h-4.848a5.507,5.507,0,0,0-5.572,5.44Z" transform="translate(113.259 91.433)" fill="#d75d5c"/>
  <path id="Caminho_250" data-name="Caminho 250" d="M197.454,193.958H180.385V193.5a9.38,9.38,0,0,0-9.491-9.265H155.626A13.823,13.823,0,0,1,141.659,170.6V143.9a11.675,11.675,0,0,0-11.813-11.532,15.126,15.126,0,0,1-15.286-14.923V81.177a6.425,6.425,0,0,1,6.5-6.346h4.848a6.278,6.278,0,0,0,6.352-6.2V48.25h.929V68.594a7.214,7.214,0,0,1-7.281,7.108h-4.848a5.507,5.507,0,0,0-5.572,5.44V117.4a14.208,14.208,0,0,0,14.357,14.016,12.611,12.611,0,0,1,12.741,12.438v26.672a12.85,12.85,0,0,0,13,12.692h15.267a10.349,10.349,0,0,1,10.42,9.719h16.14Z" transform="translate(113.259 91.433)" fill="#ff001a" opacity="0.54"/>
  <path id="Caminho_251" data-name="Caminho 251" d="M197.668,194.411H180.135V193.5a8.94,8.94,0,0,0-9.027-8.812H155.841A14.282,14.282,0,0,1,141.409,170.6V143.9a11.234,11.234,0,0,0-11.348-11.079,15.566,15.566,0,0,1-15.75-15.376V81.177a6.884,6.884,0,0,1,6.965-6.8h4.848a5.819,5.819,0,0,0,5.888-5.748V48.25h1.857V68.594a7.655,7.655,0,0,1-7.745,7.561h-4.848a5.048,5.048,0,0,0-5.108,4.986V117.4a13.749,13.749,0,0,0,13.893,13.563A13.069,13.069,0,0,1,143.266,143.9v26.672a12.446,12.446,0,0,0,12.574,12.275h15.267a10.8,10.8,0,0,1,10.847,9.719h15.713Z" transform="translate(113.045 91.433)" fill="#f3e7e0" opacity="0.54"/>
  <rect id="Retângulo_8" data-name="Retângulo 8" width="11.07" height="2.158" rx="0.41" transform="translate(295.222 283.868)" fill="#bfba13"/>
  <path id="Caminho_896" data-name="Caminho 896" d="M0,0,6.476.021,6.483,2.23.007,2.209Z" transform="matrix(0.135, -0.991, 0.991, 0.135, 305.264, 288.535)" fill="#f3e7e0" opacity="0.76"/>
  <path id="Caminho_897" data-name="Caminho 897" d="M0,0,6.475.022l.007,2.209L.007,2.209Z" transform="translate(309.753 289.832) rotate(-81.951)" fill="#f3e7e0" opacity="0.76"/>
  <path id="Caminho_898" data-name="Caminho 898" d="M0,0,6.475.022l.007,2.209L.007,2.209Z" transform="translate(296.416 289.829) rotate(-81.951)" fill="#f3e7e0" opacity="0.76"/>
  <path id="Caminho_252" data-name="Caminho 252" d="M119.378,72.738h-5.572a1.091,1.091,0,0,1-.78-.308,1.039,1.039,0,0,1-.315-.762h0a1.056,1.056,0,0,1,.314-.768,1.109,1.109,0,0,1,.782-.32h5.572a1.109,1.109,0,0,1,.782.32,1.056,1.056,0,0,1,.314.768h0a1.039,1.039,0,0,1-.315.762,1.091,1.091,0,0,1-.78.308Z" transform="translate(111.673 109.592)" fill="#a8a8a8"/>
  <path id="Caminho_253" data-name="Caminho 253" d="M116.353,71.9a1.631,1.631,0,0,1-1.023,1.522,1.7,1.7,0,0,1-1.83-.35,1.6,1.6,0,0,1-.359-1.787,1.673,1.673,0,0,1,1.559-1A1.634,1.634,0,0,1,116.353,71.9Z" transform="translate(111.93 109.356)" fill="#757573"/>
  <path id="Caminho_254" data-name="Caminho 254" d="M116.721,79.084h-1.56a1.128,1.128,0,0,1-1.1-.834l-.539-2.14a1.068,1.068,0,0,1,.2-.937,1.124,1.124,0,0,1,.88-.422h2.675a1.124,1.124,0,0,1,.88.422,1.068,1.068,0,0,1,.2.937l-.539,2.14a1.128,1.128,0,0,1-1.1.834Z" transform="translate(112.342 112.982)" fill="#bfba13"/>
  <path id="Caminho_255" data-name="Caminho 255" d="M124.769,32.443a.918.918,0,0,1-.929-.907V18.173A3.231,3.231,0,0,1,127.109,15h2.34a.918.918,0,0,1,.929.907.936.936,0,0,1-.929.907h-2.34a1.4,1.4,0,0,0-1.412,1.378V31.554a.918.918,0,0,1-.929.888Z" transform="translate(121.215 64.395)" fill="#a8a8a8"/>
  <path id="Caminho_256" data-name="Caminho 256" d="M140.92,23.68H122.959a7.343,7.343,0,0,0-7.429,7.253V48.466a7.276,7.276,0,0,0,5.256,6.926v2.484a8.009,8.009,0,0,0,2.451,5.732,8.408,8.408,0,0,0,5.888,2.355H134.7a8.205,8.205,0,0,0,8.3-8.1v-2.5a7.277,7.277,0,0,0,5.275-6.926V30.9A7.342,7.342,0,0,0,140.92,23.68Z" transform="translate(114.091 71.453)" fill="#fffbf7"/>
  <path id="Caminho_257" data-name="Caminho 257" d="M117,35.436v4.932a6.058,6.058,0,0,0,4.4,5.784v2.1a6.884,6.884,0,0,0,6.947,6.781h4.736a6.884,6.884,0,0,0,6.947-6.781V46.17a6.075,6.075,0,0,0,4.383-5.8v-5.44l-.743-.218a41.813,41.813,0,0,0-24.257-.109Z" transform="translate(115.351 78.917)" fill="#ff001a"/>
  <path id="Caminho_258" data-name="Caminho 258" d="M138.211,25.57H123.148A6.112,6.112,0,0,0,117,31.608V46.295a6.058,6.058,0,0,0,4.4,5.784v2.1a6.884,6.884,0,0,0,6.947,6.781h4.736a6.884,6.884,0,0,0,6.947-6.781V52.1a6.075,6.075,0,0,0,4.383-5.8V31.608a6.132,6.132,0,0,0-6.2-6.038Z" transform="translate(115.351 72.99)" fill="#f3e7e0" opacity="0.22"/>
  <rect id="Retângulo_12" data-name="Retângulo 12" width="15.212" height="5.712" transform="translate(238.424 104.272)" fill="#fffbf7"/>
  <rect id="Retângulo_13" data-name="Retângulo 13" width="9.361" height="1.142" transform="translate(241.359 106.556)" fill="#f3e7e0" opacity="0.58"/>
  <rect id="Retângulo_14" data-name="Retângulo 14" width="2.34" height="5.712" transform="translate(244.869 133.972)" fill="#ff001a"/>
  <rect id="Retângulo_15" data-name="Retângulo 15" width="2.34" height="5.712" transform="translate(244.869 133.972)" fill="#f3e7e0" opacity="0.58"/>
  <path id="Caminho_259" data-name="Caminho 259" d="M126.08,25.452a1.175,1.175,0,0,1-1.17,1.142,1.143,1.143,0,1,1,1.17-1.142Z" transform="translate(121.129 71.965)" fill="#f3e7e0" opacity="0.58"/>
  <path id="Caminho_260" data-name="Caminho 260" d="M124.589,29.562a3.231,3.231,0,0,1-3.269-3.191V24.087a.929.929,0,0,1,1.857,0v2.285a1.412,1.412,0,0,0,2.823,0,.929.929,0,0,1,1.857,0A3.231,3.231,0,0,1,124.589,29.562Z" transform="translate(119.055 71.047)" fill="#a8a8a8"/>
  <path id="Caminho_261" data-name="Caminho 261" d="M50.743,211.123c.464-.725.78-1.16.78-1.16H63c.167-2.013.371-4.352.557-6.382H50Z" transform="translate(57.908 217.745)" fill="#ffbca9"/>
  <path id="Caminho_262" data-name="Caminho 262" d="M52.406,208.277A28.181,28.181,0,0,0,48.06,218.34H69.475c0-1.9-.8-5.585-4.848-11.26H53.186S52.871,207.551,52.406,208.277Z" transform="translate(56.245 220.591)" fill="#d9d2ce"/>
  <path id="Caminho_263" data-name="Caminho 263" d="M48.506,213.3h-.111a.844.844,0,0,0-.854.834V216.4H71.017v-2.3c0-.453-.241-.816-.52-.816H70Z" transform="translate(55.799 225.633)" fill="#7a7a7a"/>
  <path id="Caminho_264" data-name="Caminho 264" d="M83.488,211.673c-.446-2.176-1.152-5.44-1.709-8.323H67.05l1.43,7.489C71.433,211.908,77.117,214.991,83.488,211.673Z" transform="translate(72.526 217.558)" fill="#ffbca9"/>
  <path id="Caminho_265" data-name="Caminho 265" d="M101.04,279.106,99.387,110.19H48.254l-.2,169.333H69.465l3.529-139.2h4.681l1.319,138.781H101.04Z" transform="translate(56.236 141.802)" fill="#434343"/>
  <path id="Caminho_266" data-name="Caminho 266" d="M67.151,217.594l41.586-.127a5.742,5.742,0,0,0-5.7-4.587H99.952a15.651,15.651,0,0,1-10.94-4.352l-.464-.471a2.573,2.573,0,0,0-2.99-.4l-1.152.6-.446.236c-6.371,3.318-12.054.236-15.007-.834l-.5-.163a.815.815,0,0,0-.666.095.777.777,0,0,0-.355.558l-.5,5.113-.409,4.515a1.169,1.169,0,0,0,0,.435v-.127a.54.54,0,0,1,.208-.377.567.567,0,0,1,.423-.113Z" transform="translate(72.053 220.811)" fill="#d9d2ce"/>
  <path id="Caminho_267" data-name="Caminho 267" d="M109.482,213.462a.569.569,0,0,0-.576-.562h-.093l-41.586.181a.553.553,0,0,0-.557.471v.127l-.26,1.813a2.043,2.043,0,0,0,.186.635L108.572,216c.669,0,.929-.254.929-.544Z" transform="translate(71.977 225.324)" fill="#7a7a7a"/>
  <path id="Caminho_268" data-name="Caminho 268" d="M82.118,25.915a13.059,13.059,0,0,0,1.226-5.53,11.651,11.651,0,0,0-5.7-10.924,12.267,12.267,0,0,0-12.559,0,11.651,11.651,0,0,0-5.7,10.924,13.06,13.06,0,0,0,1.226,5.53,21.5,21.5,0,0,0-9.38,29.011v9.5a5.692,5.692,0,0,0,5.461,5.893H86.037A5.692,5.692,0,0,0,91.5,64.427V54.944a21.336,21.336,0,0,0,2.359-9.755A21.885,21.885,0,0,0,82.118,25.915Z" transform="translate(56.901 58.484)" fill="#302f3f"/>
  <path id="Caminho_269" data-name="Caminho 269" d="M74.786,18.971a14.6,14.6,0,0,0-18.926,0,31.224,31.224,0,0,1,18.926,0Z" transform="translate(62.932 64.793)" fill="#f3e7e0"/>
  <path id="Caminho_270" data-name="Caminho 270" d="M90.516,36.493h-.371V34.934c-3.213-.616-4.328-4.025-4.7-6.836a1.44,1.44,0,0,0-.959-1.181,1.494,1.494,0,0,0-1.511.311C78,32.087,70.383,32.45,66.668,32.3a1.456,1.456,0,0,1-1.166-.652,1.385,1.385,0,0,1-.116-1.306v-.109a1.414,1.414,0,0,0-.549-1.71,1.5,1.5,0,0,0-1.829.15,20.508,20.508,0,0,1-8.915,5.44v2.321h0a5.137,5.137,0,0,0-5.423,4.787v.508a5.136,5.136,0,0,0,5.423,4.787h0v.671A17.542,17.542,0,0,0,64.94,63.4v6.419a6.844,6.844,0,0,0,2.085,4.9,7.184,7.184,0,0,0,5.029,2.022h2.73a6.076,6.076,0,0,0,4.31-1.709,5.786,5.786,0,0,0,1.763-4.2V62.675a17.524,17.524,0,0,0,9.287-15.43v-.671h.371a5.118,5.118,0,0,0,5.4-4.787V41.28A5.118,5.118,0,0,0,90.516,36.493Z" transform="translate(56.768 74.016)" fill="#ffbca9"/>
  <path id="Caminho_271" data-name="Caminho 271" d="M58.557,47.815l-.817.417,15.342,4.95V46.6a18.288,18.288,0,0,1-8.655,2.158A18.568,18.568,0,0,1,58.557,47.815Z" transform="translate(64.544 90.091)" fill="#f19981"/>
  <path id="Caminho_272" data-name="Caminho 272" d="M65.062,45.844h.13a.25.25,0,0,0,.093-.326,2.874,2.874,0,0,0-2.452-1.378,2.837,2.837,0,0,0-2.452,1.378.232.232,0,0,0,0,.326.246.246,0,0,0,.2.033.24.24,0,0,0,.155-.124,2.333,2.333,0,0,1,2.025-1.142,2.389,2.389,0,0,1,2.025,1.142A.226.226,0,0,0,65.062,45.844Z" transform="translate(66.751 88.091)" fill="#f19981"/>
  <path id="Caminho_273" data-name="Caminho 273" d="M75.026,36.467a.239.239,0,0,0,.241-.218,3.264,3.264,0,0,0-1.036-2.324A3.426,3.426,0,0,0,71.812,33a.226.226,0,0,0-.245.082.213.213,0,0,0,0,.253.226.226,0,0,0,.245.082,2.954,2.954,0,0,1,2.118.833,2.812,2.812,0,0,1,.854,2.068.242.242,0,0,0,.241.145Z" transform="translate(76.363 79.028)" fill="#f19981"/>
  <path id="Caminho_274" data-name="Caminho 274" d="M49.591,36.5a.245.245,0,0,0,.176-.056.234.234,0,0,0,.084-.162,2.775,2.775,0,0,1,.842-2.079,2.917,2.917,0,0,1,2.13-.822.226.226,0,0,0,.245-.082.213.213,0,0,0,0-.253.226.226,0,0,0-.245-.082,3.444,3.444,0,0,0-2.452.946,3.28,3.28,0,0,0-1.022,2.372.239.239,0,0,0,.241.218Z" transform="translate(57.351 78.995)" fill="#f19981"/>
  <path id="Caminho_275" data-name="Caminho 275" d="M66.126,38.1h0a.973.973,0,0,0,.984-.961v-1.9a.931.931,0,0,0-.283-.685.978.978,0,0,0-.7-.276h0a.978.978,0,0,0-.69.283.931.931,0,0,0-.276.678v1.9a.931.931,0,0,0,.276.678.978.978,0,0,0,.69.283Z" transform="translate(70.905 80.065)" fill="#302f3f"/>
  <path id="Caminho_276" data-name="Caminho 276" d="M58.044,38.1h0a.973.973,0,0,0,.984-.961v-1.9a.973.973,0,0,0-.984-.961h0a.973.973,0,0,0-.984.961v1.9a.973.973,0,0,0,.984.961Z" transform="translate(63.961 80.065)" fill="#302f3f"/>
  <path id="Caminho_277" data-name="Caminho 277" d="M64.764,33.2a2.3,2.3,0,0,0,1.077.127h1.1a8.119,8.119,0,0,1,1.1.091,2.281,2.281,0,0,0,1.059,0c.3-.127.409-.526,0-1.052a2.865,2.865,0,0,0-2.247-1.106,2.5,2.5,0,0,0-2.229.925A.712.712,0,0,0,64.764,33.2Z" transform="translate(70.318 77.602)" fill="#302f3f"/>
  <path id="Caminho_278" data-name="Caminho 278" d="M56.424,33.2a2.3,2.3,0,0,0,1.077.127h1.1a8.118,8.118,0,0,1,1.1.091,2.282,2.282,0,0,0,1.059,0c.3-.127.409-.526,0-1.052A2.865,2.865,0,0,0,58.5,31.257a2.5,2.5,0,0,0-2.229.925A.712.712,0,0,0,56.424,33.2Z" transform="translate(63.167 77.602)" fill="#302f3f"/>
  <path id="Caminho_279" data-name="Caminho 279" d="M66.637,36.939a3.216,3.216,0,0,0,1.727-.453.233.233,0,0,0,.074-.326.246.246,0,0,0-.334-.073,3.168,3.168,0,0,1-3.046,0,.263.263,0,0,0-.334.109.231.231,0,0,0-.017.187.238.238,0,0,0,.128.14A4.073,4.073,0,0,0,66.637,36.939Z" transform="translate(70.506 81.512)" fill="#f19981"/>
  <path id="Caminho_280" data-name="Caminho 280" d="M58.568,36.92a3.254,3.254,0,0,0,1.746-.453.232.232,0,0,0,0-.326.265.265,0,0,0-.353,0,3.149,3.149,0,0,1-3.046,0,.282.282,0,0,0-.334.109.251.251,0,0,0,.111.326A4.078,4.078,0,0,0,58.568,36.92Z" transform="translate(63.53 81.531)" fill="#f19981"/>
  <path id="Caminho_281" data-name="Caminho 281" d="M60.637,41.287h2.34a1.879,1.879,0,0,0,1.347-.563,1.789,1.789,0,0,0,.51-1.341v-.435a.789.789,0,0,0-.8-.78,1.083,1.083,0,0,1-1.1-1.07V33.073a.167.167,0,0,0-.334,0V37.1a1.413,1.413,0,0,0,1.43,1.4.459.459,0,0,1,.464.453v.435a1.54,1.54,0,0,1-.461,1.114,1.617,1.617,0,0,1-1.136.463H60.637a.163.163,0,1,0,0,.326Z" transform="translate(66.884 78.959)" fill="#f19981"/>
  <path id="Caminho_282" data-name="Caminho 282" d="M61.773,43.625H61.2a4.177,4.177,0,0,1-2.964-1.153A3.978,3.978,0,0,1,57,39.6v-.29h8.915v.29A3.978,3.978,0,0,1,64.7,42.453,4.175,4.175,0,0,1,61.773,43.625Z" transform="translate(63.909 84.163)" fill="#fff"/>
  <path id="Caminho_283" data-name="Caminho 283" d="M98.647,54.243H94.8V51.324A2.3,2.3,0,0,0,92.74,48.84H68.688a2.317,2.317,0,0,0-2.062,2.484v2.919H61.054A20.444,20.444,0,0,0,46.742,60a19.475,19.475,0,0,0-5.933,13.956L40.27,92.338H53.123v-.163l.149.762a2.533,2.533,0,0,1,0,.526l-4.049,88.23H113.45l-5.925-88.23v-.526l.2-1h12.3V75.167A21.182,21.182,0,0,0,98.647,54.243Z" transform="translate(49.566 91.913)" fill="#f3e7e0"/>
  <path id="Caminho_284" data-name="Caminho 284" d="M48.31,72.043V65.624a2.515,2.515,0,0,1,2.545-2.484H63.262a2.515,2.515,0,0,1,2.545,2.484v6.419a2.515,2.515,0,0,1-2.545,2.484H50.855A2.533,2.533,0,0,1,48.31,72.043Zm14.58-6.056H51.226V71.68H62.89Z" transform="translate(56.459 103.541)" fill="#b31222"/>
  <rect id="Retângulo_16" data-name="Retângulo 16" width="14.58" height="8.54" rx="0.58" transform="translate(106.236 168.096)" fill="#fdffff"/>
  <rect id="Retângulo_17" data-name="Retângulo 17" width="7.745" height="1.088" transform="translate(109.914 170.997)" fill="#c5969b"/>
  <rect id="Retângulo_18" data-name="Retângulo 18" width="7.745" height="1.088" transform="translate(109.914 173.154)" fill="#c5969b"/>
  <path id="Caminho_285" data-name="Caminho 285" d="M62.229,154.122a.918.918,0,0,1-.929-.907V58.187a.929.929,0,0,1,1.857,0v95.029A.918.918,0,0,1,62.229,154.122Z" transform="translate(67.596 98.776)" fill="#fffbf7"/>
  <path id="Caminho_286" data-name="Caminho 286" d="M67.119,89.319a3.065,3.065,0,1,1,3.139-3.064,3.1,3.1,0,0,1-3.139,3.064Zm0-4.315A1.251,1.251,0,1,0,68.4,86.254,1.267,1.267,0,0,0,67.119,85Z" transform="translate(69.894 119.846)" fill="#fffbf7"/>
  <path id="Caminho_287" data-name="Caminho 287" d="M67.119,97.059a3.065,3.065,0,1,1,3.139-3.064,3.1,3.1,0,0,1-3.139,3.064Zm0-4.315A1.251,1.251,0,1,0,68.4,93.994,1.267,1.267,0,0,0,67.119,92.743Z" transform="translate(69.894 126.14)" fill="#fffbf7"/>
  <path id="Caminho_288" data-name="Caminho 288" d="M94.131,155.192h0c0-.236-2.953-59.98-5.275-82.482H76.69l6.724,73.307c-.409.526-.854,1.16-1.337,1.922L79.123,152.2a.766.766,0,0,0,.111,1l.111.109a.813.813,0,0,0,1.077,0l2.693-2.1a.833.833,0,0,1,.837-.124.8.8,0,0,1,.5.667l.39,4.134v.127l-.334,5.331a.8.8,0,0,0,.687.834h.186a.833.833,0,0,0,.619-.14.8.8,0,0,0,.329-.53l.78-5.585v6.763a.789.789,0,0,0,.246.571.828.828,0,0,0,.59.227h0a.809.809,0,0,0,.8-.725l.557-6.872.371,5.911a.794.794,0,0,0,.36.613.834.834,0,0,0,.718.094h.2a.8.8,0,0,0,.557-.743l.2-5.857.892,4.043a.81.81,0,0,0,.706.616.83.83,0,0,0,.653-.211.788.788,0,0,0,.257-.623Z" transform="translate(80.791 111.324)" fill="#ffbca9"/>
  <path id="Caminho_289" data-name="Caminho 289" d="M93.07,127.034h0s-.353-7.4-.91-17.86c-.223-4.134-10.605,0-10.605,0l.8,8.7c-.409.526-.854,1.16-1.337,1.922l-2.953,4.243a.766.766,0,0,0,.111,1l.111.109a.813.813,0,0,0,1.077,0l2.693-2.1a.833.833,0,0,1,.837-.124.8.8,0,0,1,.5.667l.39,4.134v.127l-.334,5.331a.8.8,0,0,0,.687.834h.186a.833.833,0,0,0,.619-.14.8.8,0,0,0,.329-.53l.78-5.585v6.763a.789.789,0,0,0,.246.571.828.828,0,0,0,.59.227h0a.809.809,0,0,0,.8-.725l.557-6.872.371,5.911a.794.794,0,0,0,.36.613.834.834,0,0,0,.718.094h.2a.8.8,0,0,0,.557-.743l.2-5.857.892,4.043a.81.81,0,0,0,.706.616.83.83,0,0,0,.653-.211.788.788,0,0,0,.257-.623Z" transform="translate(81.852 139.481)" fill="#fffbf7" opacity="0.89"/>
  <path id="Caminho_290" data-name="Caminho 290" d="M37.579,127.666h0s.427-8.667,1.077-20.543c0-1.559,10.624.616,10.624.616L48.3,118.491a17.481,17.481,0,0,1,1.337,1.922l2.953,4.334a.784.784,0,0,1-.111,1l-.111.109a.813.813,0,0,1-1.077,0l-2.693-2.176a.833.833,0,0,0-.824-.108.8.8,0,0,0-.495.652l-.39,4.134v.127l.353,5.331a.821.821,0,0,1-.687.834h-.2a.834.834,0,0,1-.947-.671l-.762-5.585v6.763a.827.827,0,0,1-.836.8h-.093a.791.791,0,0,1-.8-.725l-.557-6.872-.371,5.911a.794.794,0,0,1-.36.613.834.834,0,0,1-.718.094h-.223a.854.854,0,0,1-.557-.743l-.186-5.857-.892,4.043a.827.827,0,0,1-1.359.406.788.788,0,0,1-.257-.623Z" transform="translate(47.13 138.85)" fill="#f3e7e0"/>
  <path id="Caminho_291" data-name="Caminho 291" d="M37.579,155.192h0c0-.236,2.953-59.98,5.275-82.482H55.038L48.3,145.945a17.483,17.483,0,0,1,1.337,1.922l2.953,4.333a.784.784,0,0,1-.111,1l-.111.109a.813.813,0,0,1-1.077,0l-2.693-2.1a.833.833,0,0,0-.824-.108.8.8,0,0,0-.495.652l-.39,4.134v.127l.353,5.331a.821.821,0,0,1-.687.834h-.2a.834.834,0,0,1-.947-.671l-.762-5.585v6.763a.827.827,0,0,1-.836.8h-.093a.791.791,0,0,1-.8-.725l-.557-6.872-.371,5.911a.794.794,0,0,1-.36.613.834.834,0,0,1-.718.094h-.223a.854.854,0,0,1-.557-.743l-.186-5.857-.892,4.043a.827.827,0,0,1-1.359.406.788.788,0,0,1-.257-.623Z" transform="translate(47.13 111.324)" fill="#ffbca9"/>
  <path id="Caminho_292" data-name="Caminho 292" d="M37.579,127.666h0s.427-8.667,1.077-20.543c0-1.559,10.624.616,10.624.616L48.3,118.491a17.481,17.481,0,0,1,1.337,1.922l2.953,4.334a.784.784,0,0,1-.111,1l-.111.109a.813.813,0,0,1-1.077,0l-2.693-2.176a.833.833,0,0,0-.824-.108.8.8,0,0,0-.495.652l-.39,4.134v.127l.353,5.331a.821.821,0,0,1-.687.834h-.2a.834.834,0,0,1-.947-.671l-.762-5.585v6.763a.827.827,0,0,1-.836.8h-.093a.791.791,0,0,1-.8-.725l-.557-6.872-.371,5.911a.794.794,0,0,1-.36.613.834.834,0,0,1-.718.094h-.223a.854.854,0,0,1-.557-.743l-.186-5.857-.892,4.043a.827.827,0,0,1-1.359.406.788.788,0,0,1-.257-.623Z" transform="translate(47.13 138.85)" fill="#fffbf7" opacity="0.89"/>
</svg>
