<svg xmlns="http://www.w3.org/2000/svg" xmlns:xlink="http://www.w3.org/1999/xlink" width="480" height="409" viewBox="0 0 480 409"><defs><clipPath id="b"><rect width="480" height="409"/></clipPath></defs><g id="a" clip-path="url(#b)"><rect width="480" height="409" fill="#fff"/><g transform="translate(-191 -316)"><g transform="translate(251.686 346.827)"><path d="M681.9,379.675c-1.533-28.12-26.656-50.483-57.425-50.483a62.247,62.247,0,0,0-7.093.418c-16.773-43.237-61.459-74.165-113.954-74.165-52.72,0-97.557,31.19-114.165,74.717a62.234,62.234,0,0,0-10.919-.969c-31.161,0-56.518,22.945-57.452,51.574-27.386,8.161-47.2,31.922-47.2,59.979h0c0,34.8,30.486,63.011,68.09,63.011h323.3c37.606,0,68.092-28.212,68.092-63.011h0C733.167,411.318,711.366,386.607,681.9,379.675Z" transform="translate(-314.654 -273.538)" fill="#8fd1db" opacity="0.31"/><path d="M15.3,0c8.448,0,15.3,7.9,15.3,17.638S23.745,35.276,15.3,35.276,0,27.379,0,17.638,6.849,0,15.3,0Z" transform="translate(350.682 52.281)" fill="#8fd1db" opacity="0.31"/><path d="M22.232,0C34.511,0,44.464,9.549,44.464,21.328S34.511,42.657,22.232,42.657,0,33.108,0,21.328,9.954,0,22.232,0Z" transform="translate(2.331 30.953)" fill="#8fd1db" opacity="0.31"/></g><g transform="translate(476.321 393.515)"><path d="M398.6,266.948h0a19.419,19.419,0,0,1-13.242-1.406c-1.515-.741-11.011,1.228-11.011,1.228s4.551-6.2,3.634-7.5a19.471,19.471,0,0,1-3-6.565h0a19.5,19.5,0,0,1,14.244-23.613h0a19.5,19.5,0,0,1,23.614,14.243h0A19.5,19.5,0,0,1,398.6,266.948Z" transform="translate(-374.346 -228.515)" fill="#f51918"/><path d="M393.5,243.378a4.638,4.638,0,0,1,4.249-2.818,4.851,4.851,0,0,1,4.633,4.7,4.572,4.572,0,0,1-.148,1.775,7.827,7.827,0,0,1-2.445,3.989l-5.271,4.6a1.54,1.54,0,0,1-2.028-.008l-5.171-4.594a7.82,7.82,0,0,1-2.445-3.989,4.58,4.58,0,0,1-.15-1.775,4.852,4.852,0,0,1,4.634-4.7,4.487,4.487,0,0,1,4.142,2.818Z" transform="translate(-374.346 -228.515)" fill="#fff"/></g></g><g transform="translate(0.284 359.429)"><ellipse cx="232.458" cy="13.333" rx="232.458" ry="13.333" fill="#f2f1f7"/></g><g transform="translate(130.995 108.869)"><path d="M0,0,40.862.183,41.621,167.7.759,167.512l-.22-48.681Z" transform="translate(-4.102 193.741) rotate(-89.838)" fill="#f98e01"/><path d="M0,0,20.656.135l.633,178.275L.633,178.275Z" transform="matrix(0.003, -1, 1, 0.003, -8.165, 206.964)" fill="#f98e01"/><path d="M494.022,350.984l-194.437-.806-.041,26.721,194.436.806Z" transform="translate(-319.712 -221.235)" fill="#f98e01"/><g transform="translate(-38 129.12)"><g transform="translate(0 2)"><g transform="translate(197.732)"><path d="M385.806,331h0c12.27,0,22.216,10.272,22.216,22.943v42.42a15,15,0,0,1-14.75,15.234h-7.466c-12.27,0-22.216-10.272-22.216-22.943V353.943C363.59,341.272,373.536,331,385.806,331Z" transform="translate(-370.04 -333.973)" fill="#f98e01"/></g><path d="M307.255,331h0c-12.846,0-23.26,9.893-23.26,22.1v40.509c0,8.295,7.078,15.019,15.809,15.019h7.451c12.846,0,23.259-9.893,23.259-22.1V353.1C330.514,340.893,320.1,331,307.255,331Z" transform="translate(-283.995 -331)" fill="#f98e01"/></g></g><g transform="translate(-23.49 207.183)"><path d="M299.989,386.546v56.513H306l3.3-56.513Z" transform="translate(-299.989 -386.546)" fill="#131416"/><path d="M378.956,386.546v56.513h-6.01l-3.3-56.513Z" transform="translate(-169.157 -386.546)" fill="#131416"/></g><path d="M300.556,370.86l194.536.324.212-58.623c.077-20.643-26.528-37.422-59.42-37.476l-75.642-.126c-32.772-.054-59.4,16.573-59.472,37.14Z" transform="translate(-320.995 -240.302)" fill="#f98e01"/></g><g transform="translate(210.724 -70.501)"><g transform="translate(-46.986 270.262)"><g transform="translate(38.436 -27)"><path d="M374.229,298.823h0c0-8.307-6.048-15.042-13.509-15.042H334.308c-7.461,0-13.509,6.735-13.509,15.042h0c0,1.317-1.65,14.034-1.65,14.034h9.9v-.124l.1.59a2.591,2.591,0,0,1,.036.392l.065,2.486.819,31.543c.023,1.287.677,2.318,1.833,2.318H363.13c1.156,0,1.752-.9,1.775-2.187l.915-33.164.027-1a2.6,2.6,0,0,1,.036-.392l.1-.59v.124h9.9S374.229,300.14,374.229,298.823Z" transform="translate(-319.149 -283.781)" fill="#9de34d"/></g><g transform="translate(197.593 27.056)"><g transform="translate(-1.013 0.213)"><path d="M420.991,328.43l-6.829-.6,5.719-.391a.9.9,0,0,0,.793-.951l-.01-.209a.8.8,0,0,0-.769-.793l-5.431-.048a.944.944,0,0,1-.124-.012l-4.145-.736a.872.872,0,0,1-.405-1.455l2.421-2.684a.926.926,0,0,0,.068-1.161l-.091-.121a.758.758,0,0,0-1.008-.193l-4.707,2.794a11.7,11.7,0,0,0-4.437,3.573c-5.366-.433-19.834-1.7-24.233-1.867l-2.058-12.58H364.379v-.158l-.116.749a3.567,3.567,0,0,0-.042.5l-.032,1.263,2.828,17.3c.522,5.829,4.852,7.161,10.3,6.732,8.683-.685,20.934-1.918,26.782-2.55,3.325.31,7.931.4,8.41.41a.828.828,0,0,1,.084.007l4.531.614a.878.878,0,0,0,.947-.9.821.821,0,0,0-.553-.8L413.53,332.9l5.944.242a.849.849,0,0,0,.8-.535l.095-.221a.847.847,0,0,0-.594-1.2l-5.94-.845,7.014-.061a.879.879,0,0,0,.832-.792l.013-.1A.818.818,0,0,0,420.991,328.43Z" transform="translate(-477.189 -336.837)" fill="#ffbca9"/></g></g><g transform="translate(36 -16.67)"><path d="M328.8,311.388l-.1-.551v.116h-9.032l-2.414,10.816a3.776,3.776,0,0,0,2.862,4.509l2.081.464a3.777,3.777,0,0,0,4.509-2.863l2.188-9.8-.063-2.323A2.349,2.349,0,0,0,328.8,311.388Z" transform="translate(-316.713 -293.111)" fill="#ffbca9"/><path d="M350.389,299.3a.613.613,0,0,0-.741-.1l-2.979,1.671,3.591-3.34a.706.706,0,0,0,.187-.744l-.06-.171a.614.614,0,0,0-.972-.279l-3.9,3.023,4.057-4.122a.7.7,0,0,0,.074-.9l-.045-.059a.618.618,0,0,0-.906-.086l-4.293,3.669,3.13-3.538a.686.686,0,0,0-.033-.957l-.114-.1a.624.624,0,0,0-.861.036l-3.192,3.141a.618.618,0,0,1-.078.066l-2.8,2.033a.621.621,0,0,1-.994-.521l.014-2.809a.628.628,0,0,0-.564-.644l-.117-.01a.676.676,0,0,0-.688.487l-1.289,4.2a9.474,9.474,0,0,0-.727,4.447c-3.784,3.275-14.878,12.753-15.777,13.828-3.013,3.6-5.08,6.466-2.26,9.025,3.457,3.137,6.789,1.283,9.839-2.229,4.714-5.427,11.21-13.208,14.285-16.939,2.1-1.778,4.834-4.416,5.118-4.692.018-.016.034-.03.053-.045l2.961-2.322A.694.694,0,0,0,350.389,299.3Z" transform="translate(-316.713 -293.111)" fill="#ffbca9"/></g></g><g transform="translate(-51 308.28)"><path d="M353.884,355H329.472V336h34v9.412A9.588,9.588,0,0,1,353.884,355Z" transform="translate(-275.715 -336)" fill="#252333"/><g transform="translate(0 3)"><g transform="translate(0 0.309)"><path d="M326.97,409.412c3.963,3.4,7.5.255,9.335-.834l.571-4.918H327.7C327.437,405.773,327.167,407.878,326.97,409.412Z" transform="translate(-299.699 -289.224)" fill="#ffbca9"/><path d="M310.409,339.309c-1.038,0-2.356.894-3.76,2.351-6.68,6.932-8.845,22.436-5.177,34.607l22,72.994,3,9.57,4-1.792,8-2.4-20.7-84.67,7.67-.242c9.052-.285,16.464-12.984,17.028-29.178h0Z" transform="translate(-299.699 -339.309)" fill="#252333"/><path d="M326.97,407.245c-.093-.049-.184-.088-.276-.142l-.707-.388a1.571,1.571,0,0,0-1.865.263l-.291.29a9.609,9.609,0,0,1-6.8,2.792l-1.925-.006a3.607,3.607,0,0,0-3.552,2.93l25.875.077a.35.35,0,0,1,.346.3l.011.078a.663.663,0,0,0,.033-.275l-.253-2.88-.315-3.251a.487.487,0,0,0-.629-.42c-.1.031-.207.069-.319.111C334.468,407.4,330.933,409.363,326.97,407.245Z" transform="translate(-299.699 -287.478)" fill="#8c8b8f"/><path d="M337.431,413.061l-25.875-.077h-.051a.349.349,0,0,0-.351.349l0,1.237c0,.194.156.351.581.353l26.1.077a.736.736,0,0,0,.117-.4l-.162-1.16-.011-.078A.35.35,0,0,0,337.431,413.061Z" transform="translate(-299.699 -287.478)" fill="#252333"/></g><g transform="translate(18)"><path d="M344.97,408.478c3.963,2.846,7.5.214,9.335-.7l.571-4.119H345.7C345.437,405.43,345.167,407.193,344.97,408.478Z" transform="translate(-299.463 -288.169)" fill="#ffbca9"/><path d="M334.021,339.553c-1.582,0-3.59.893-5.73,2.347-10.18,6.918-13.48,22.391-7.89,34.536l33.528,72.845,4.572,9.551,6.1-1.789,12.192-2.4-31.543-84.5,30.684-.54c6.395-.113,11.527-6.229,11.527-13.734V339Z" transform="translate(-317.699 -339)" fill="#302f3f"/><path d="M344.97,407.245c-.093-.049-.184-.088-.276-.142l-.707-.388a1.571,1.571,0,0,0-1.865.263l-.291.29a9.609,9.609,0,0,1-6.8,2.792l-1.925-.006a3.607,3.607,0,0,0-3.552,2.93l25.875.077a.35.35,0,0,1,.346.3l.011.078a.663.663,0,0,0,.033-.275l-.253-2.88-.315-3.251a.487.487,0,0,0-.629-.42c-.1.031-.207.069-.319.111C352.468,407.4,348.933,409.363,344.97,407.245Z" transform="translate(-299.119 -287.169)" fill="#8c8b8f"/><path d="M355.431,413.061l-25.875-.077h-.051a.349.349,0,0,0-.351.349l0,1.237c0,.194.156.351.581.353l26.1.077a.736.736,0,0,0,.117-.4l-.162-1.16-.011-.078A.35.35,0,0,0,355.431,413.061Z" transform="translate(-299.22 -287.169)" fill="#252333"/></g></g></g><g transform="translate(-10.986 171.531)"><path d="M384.168,245.036c-1.2-1.609-4.648-2.824-8.908-2.935a22.653,22.653,0,0,0-4.321.3c-1.431-1.6-5-2.784-9.332-2.9s-8.222.878-10.115,2.392a21.082,21.082,0,0,0-4.2-.524c-5.516-.143-10.265,1.613-10.608,3.923a2.081,2.081,0,0,0,.584,1.684,1.928,1.928,0,0,0-.284.724,1.868,1.868,0,0,0,.465,1.449l-1.213,8.2c-.5,3.369,5.621,6.27,13.669,6.479l14.807.384c8.047.209,14.975-2.353,15.473-5.723l.654-4.418c4.521-.689,7.89-2.427,8.207-4.566C389.314,247.706,387.359,246.059,384.168,245.036Z" transform="translate(-321.744 -216.831)" fill="#302f3f"/><g transform="translate(0 33.949)"><path d="M380.726,258.5a18.569,18.569,0,0,1-9.019-2.44,20.514,20.514,0,0,1-9.486,1.8c-4.264-.147-7.917-1.413-10.131-3.248a17.04,17.04,0,0,1-3.3.222,13.735,13.735,0,0,1-6.664-1.8,5.834,5.834,0,0,0-.82,2.324l-.624,5.619-.165,0c-3.494-.121-6.5,1.361-6.718,3.311l-.043.383c-.216,1.951,2.441,3.63,5.935,3.751l.165.006-.323,2.908c-.437,3.936,3.634,7.424,9.707,8.959v9.4c0,3.868,4.87,7,10.877,7h0c6.007,0,10.877-3.137,10.877-7v-7.837a4.5,4.5,0,0,0-.14-1.065c.295-.064.6-.118.886-.192,5.358-1.374,9.225-4.306,9.614-7.82l.323-2.909.538.018c3.494.121,6.5-1.361,6.718-3.311l.043-.384c.216-1.95-2.441-3.629-5.935-3.75l-.536-.018.439-3.955C382.216,258.5,381.478,258.522,380.726,258.5Z" transform="translate(-326.744 -248.026)" fill="#ffbca9"/></g><path d="M348.346,277.714l-4.276-.265a8,8,0,0,1-2.6-.612V281l10.716-4A7.991,7.991,0,0,1,348.346,277.714Z" transform="translate(-319.422 -210.03)" fill="#f19981"/><g transform="translate(8.743 51.736)"><path d="M345.428,274.342a.137.137,0,0,1-.07-.019.139.139,0,0,1-.051-.191,1.6,1.6,0,0,1,2.769,0,.14.14,0,1,1-.242.14,1.32,1.32,0,0,0-2.285,0A.14.14,0,0,1,345.428,274.342Z" transform="translate(-320.941 -258.938)" fill="#f19981"/><path d="M359.806,264.549a.14.14,0,0,0,.149-.131,2,2,0,0,0-1.831-2.256.14.14,0,0,0-.018.28,1.7,1.7,0,0,1,1.569,1.959A.141.141,0,0,0,359.806,264.549Z" transform="translate(-306.061 -258.938)" fill="#f19981"/><path d="M334.618,262.988a.139.139,0,0,0,.148-.131,1.7,1.7,0,0,1,1.8-1.751.14.14,0,1,0,.018-.279,2,2,0,0,0-2.1,2.013A.14.14,0,0,0,334.618,262.988Z" transform="translate(-334.487 -258.938)" fill="#f19981"/><path d="M351.583,265.082h0a.554.554,0,0,0,.587-.518l.068-1.1a.553.553,0,0,0-.518-.586h0a.552.552,0,0,0-.586.518l-.069,1.105A.553.553,0,0,0,351.583,265.082Z" transform="translate(-315.094 -258.938)" fill="#302f3f"/><path d="M343.111,264.557h0a.552.552,0,0,0,.586-.518l.069-1.105a.553.553,0,0,0-.518-.586h0a.554.554,0,0,0-.587.518l-.068,1.105A.553.553,0,0,0,343.111,264.557Z" transform="translate(-325.005 -258.938)" fill="#302f3f"/><g transform="translate(37.151 1.033)"><path d="M350.916,261.034a1.634,1.634,0,0,0,.709.2c.259.036.518.078.742.124s.481.107.734.176a1.618,1.618,0,0,0,.727.088c.207-.051.327-.292.15-.654a2.029,2.029,0,0,0-1.413-.952,1.81,1.81,0,0,0-1.6.34C350.692,260.63,350.735,260.9,350.916,261.034Z" transform="translate(-350.77 -259.971)" fill="#302f3f"/></g><g transform="translate(14.955)"><path d="M341.215,260.338a1.448,1.448,0,0,0,.729.127c.262,0,.524.012.752.031s.491.051.751.092a1.411,1.411,0,0,0,.732-.007c.2-.088.29-.379.071-.764a1.954,1.954,0,0,0-1.519-.872,1.711,1.711,0,0,0-1.551.621C340.944,259.914,341.02,260.218,341.215,260.338Z" transform="translate(-341.033 -258.938)" fill="#302f3f"/></g><path d="M351.612,265.537a1.875,1.875,0,0,0,.994-.2.14.14,0,0,0-.14-.242,1.761,1.761,0,0,1-1.714-.115.141.141,0,0,0-.191.051.139.139,0,0,0,.051.191A2.251,2.251,0,0,0,351.612,265.537Z" transform="translate(-314.934 -258.938)" fill="#f19981"/><path d="M343.139,265.012a1.868,1.868,0,0,0,.994-.2.14.14,0,0,0-.14-.242,1.758,1.758,0,0,1-1.713-.115.14.14,0,0,0-.141.242A2.259,2.259,0,0,0,343.139,265.012Z" transform="translate(-325.252 -258.938)" fill="#f19981"/><path d="M345.522,266.879l1.958.122a1.532,1.532,0,0,0,1.711-1.3l.019-.32a.631.631,0,0,0-.633-.621.867.867,0,0,1-.87-.853l.185-2.979a.141.141,0,0,0-.279-.017l-.185,2.979A1.13,1.13,0,0,0,348.562,265a.367.367,0,0,1,.369.362l-.02.32a1.267,1.267,0,0,1-1.416,1.08l-1.958-.122a.122.122,0,1,0-.015.242Z" transform="translate(-320.173 -258.938)" fill="#f19981"/><path d="M346.131,271.041l-1.993-.2a2.228,2.228,0,0,1-2-2.436l0-.029,6.426.637,0,.028A2.226,2.226,0,0,1,346.131,271.041Z" transform="translate(-323.072 -258.938)" fill="#fff"/></g></g></g><g transform="translate(341.539 214.876)"><g transform="translate(-8.539 14.218)"><rect width="59" height="8" transform="translate(0 -0.095)" fill="#a8a8a8"/><path d="M463.5,377h-54a2.5,2.5,0,0,1-2.5-2.5h0a2.5,2.5,0,0,1,2.5-2.5h54a2.5,2.5,0,0,1,2.5,2.5h0A2.5,2.5,0,0,1,463.5,377Z" transform="translate(-405.902 -305.55)" fill="#a8a8a8"/><rect width="6" height="132" transform="translate(3 7.905)" fill="#bdbdbb"/><rect width="6" height="132" transform="translate(50 7.905)" fill="#bdbdbb"/><path d="M412.973,376.5a2,2,0,1,1,2-2A2,2,0,0,1,412.973,376.5Zm0-3a1,1,0,1,0,1,1A1,1,0,0,0,412.973,373.5Z" transform="translate(-405.902 -305.548)" fill="#a8a8a8"/><path d="M460.473,377a2,2,0,1,1,2-2A2,2,0,0,1,460.473,377Zm0-3a1,1,0,1,0,1,1A1,1,0,0,0,460.473,374Z" transform="translate(-405.902 -305.154)" fill="#a8a8a8"/></g><g transform="translate(-58 -20)"><rect width="36" height="23" rx="3.206" transform="translate(62.063 10.99)" fill="#f3e7e0"/><path d="M1.529,0H26.47A1.53,1.53,0,0,1,28,1.53V22.471A1.529,1.529,0,0,1,26.471,24H1.529A1.529,1.529,0,0,1,0,22.471V1.529A1.529,1.529,0,0,1,1.529,0Z" transform="translate(66.063 3.99)" fill="#bcbcbc" opacity="0.78"/><rect width="36" height="7" rx="0.794" transform="translate(62.063 21.99)" fill="#dbd2cc"/><path d="M.794,0H17.206A.794.794,0,0,1,18,.794V4.206A.794.794,0,0,1,17.206,5H.794A.794.794,0,0,1,0,4.206V.794A.794.794,0,0,1,.794,0Z" transform="translate(66.063 19.99)" fill="#679efe"/><g transform="translate(71.243)"><path d="M441.341,301.01h-9.673a3.984,3.984,0,0,0-3.984,3.983v9.673a3.986,3.986,0,0,0,2.835,3.814v1.374a4.467,4.467,0,0,0,4.466,4.466h3.039a4.467,4.467,0,0,0,4.466-4.466V318.48a3.986,3.986,0,0,0,2.835-3.814v-9.673A3.984,3.984,0,0,0,441.341,301.01Z" transform="translate(-427.684 -301.01)" fill="#fffbf7"/><path d="M429.115,311.609v2.732a3.339,3.339,0,0,0,2.375,3.2v1.151a3.741,3.741,0,0,0,3.741,3.742h2.547a3.741,3.741,0,0,0,3.741-3.742v-1.151a3.339,3.339,0,0,0,2.375-3.2v-2.955l-.4-.125a21.982,21.982,0,0,0-13.062-.058Z" transform="translate(-427.684 -301.01)" fill="#d75d5c"/><path d="M440.556,302.9h-8.1a3.337,3.337,0,0,0-3.338,3.337v8.1a3.339,3.339,0,0,0,2.375,3.2v1.151a3.741,3.741,0,0,0,3.741,3.742h2.547a3.741,3.741,0,0,0,3.741-3.742v-1.151a3.339,3.339,0,0,0,2.375-3.2v-8.1A3.337,3.337,0,0,0,440.556,302.9Z" transform="translate(-427.684 -301.01)" fill="#efc4bb" opacity="0.22"/><rect width="8.19" height="3.15" transform="translate(4.725 5.04)" fill="#fffbf7"/><rect width="5.04" height="0.63" transform="translate(6.301 6.3)" fill="#f3e7e0" opacity="0.58"/><rect width="1.26" height="3.15" transform="translate(8.19 21.42)" fill="#d75d5c"/><rect width="1.26" height="3.15" transform="translate(8.19 21.42)" fill="#f3e7e0" opacity="0.58"/><path d="M437.135,302.27a.631.631,0,1,1-.631-.631A.631.631,0,0,1,437.135,302.27Z" transform="translate(-427.684 -301.01)" fill="#f3e7e0" opacity="0.58"/></g><g transform="translate(-19.079 16.74)"><g transform="translate(6.555)"><path d="M453.351,329.25H436.8c-3.875,0-7.028-1.761-7.028-3.925v-.092c0-3.85-5.732-6.983-12.777-6.983h-11.75c-3.39,0-6.146,1.495-6.146,3.332,0,2.062-3,3.739-6.694,3.739h-7.929v-.5H392.4c3.3,0,5.98-1.453,5.98-3.239,0-2.113,3.077-3.832,6.859-3.832h11.75c7.437,0,13.49,3.357,13.49,7.483v.092c0,1.889,2.832,3.425,6.314,3.425h16.555c2.755,0,5-1.21,5-2.7v-2.1h.713v2.1C459.06,327.815,456.5,329.25,453.351,329.25Z" transform="translate(-384.473 -317.75)" fill="#fffbf7"/><path d="M453.351,329.25H436.8c-3.875,0-7.028-1.761-7.028-3.925v-.092c0-3.85-5.732-6.983-12.777-6.983h-11.75c-3.39,0-6.146,1.495-6.146,3.332,0,2.062-3,3.739-6.694,3.739h-7.929v-.5H392.4c3.3,0,5.98-1.453,5.98-3.239,0-2.113,3.077-3.832,6.859-3.832h11.75c7.437,0,13.49,3.357,13.49,7.483v.092c0,1.889,2.832,3.425,6.314,3.425h16.555c2.755,0,5-1.21,5-2.7v-2.1h.713v2.1C459.06,327.815,456.5,329.25,453.351,329.25Z" transform="translate(-384.473 -317.75)" fill="#d75d5c" opacity="0.54"/><path d="M453.351,329.25H436.8c-3.875,0-7.028-1.761-7.028-3.925v-.092c0-3.85-5.732-6.983-12.777-6.983h-11.75c-3.39,0-6.146,1.495-6.146,3.332,0,2.062-3,3.739-6.694,3.739h-7.929v-.5H392.4c3.3,0,5.98-1.453,5.98-3.239,0-2.113,3.077-3.832,6.859-3.832h11.75c7.437,0,13.49,3.357,13.49,7.483v.092c0,1.889,2.832,3.425,6.314,3.425h16.555c2.755,0,5-1.21,5-2.7v-2.1h.713v2.1C459.06,327.815,456.5,329.25,453.351,329.25Z" transform="translate(-384.473 -317.75)" fill="#f3e7e0" opacity="0.1"/></g><rect width="5.64" height="1.128" rx="0.412" transform="translate(1.07 6.974)" fill="#e36e4d"/><rect width="1.128" height="3.384" transform="matrix(0.991, -0.135, 0.135, 0.991, 0, 6.22)" fill="#f3e7e0" opacity="0.76"/><rect width="1.128" height="3.384" transform="translate(5.076 6.22) rotate(-7.78)" fill="#f3e7e0" opacity="0.76"/></g></g></g></g></svg>