<svg xmlns="http://www.w3.org/2000/svg" width="1600" height="369.831" viewBox="0 0 1600 369.831">
  <g id="Grupo_215" data-name="Grupo 215" transform="translate(0 -5382)">
    <g id="Grupo_37" data-name="Grupo 37" transform="translate(-1908 2151.437)">
      <g id="Grupo_1" data-name="Grupo 1" transform="translate(1908 3230.563)">
        <path id="Caminho_1" data-name="Caminho 1" d="M0,132.3c1058.453-294.968,898.011,56.241,1595.529-27.317,3.682,3.214,0,267.78,0,267.78H0S.475,130.691,0,132.3Z" transform="translate(1.447 -2.931)" fill="#8fd1db" opacity="0.2"/>
        <path id="Caminho_2" data-name="Caminho 2" d="M1596.769,64.493C967.374-115.242,698.981,164.019,1.636,82.035c-3.681,3.153,0,290.726,0,290.726H1596.769S1596.294,62.916,1596.769,64.493Z" transform="translate(1.447 -2.931)" fill="#8fd1db" opacity="0.4"/>
        <path id="Caminho_3" data-name="Caminho 3" d="M1519.553,65.949C423.661,134.071,515.977-33.153-78.822,17.244c-3.655,3.184,0,355.517,0,355.517H1519.553S1519.082,64.357,1519.553,65.949Z" transform="translate(80.447 -2.931)" fill="#8fd1db" opacity="0.4"/>
      </g>
      <path id="Caminho_1-2" data-name="Caminho 1" d="M0,132.3c1058.453-294.968,898.011,56.241,1595.529-27.317,3.682,3.214,0,267.78,0,267.78H0S.475,130.691,0,132.3Z" transform="translate(1909.447 3223.067)" fill="#8fd1db" opacity="0.2"/>
      <path id="Caminho_2-2" data-name="Caminho 2" d="M1596.769,64.493C967.374-115.242,698.981,164.019,1.636,82.035c-3.681,3.153,0,290.726,0,290.726H1596.769S1596.294,62.916,1596.769,64.493Z" transform="translate(1909.447 3227.632)" fill="#8fd1db" opacity="0.4"/>
      <path id="Caminho_4" data-name="Caminho 4" d="M1596.769,64.493C967.374-115.242,698.981,164.019,1.636,82.035c-3.681,3.153,0,290.726,0,290.726H1596.769S1596.294,62.916,1596.769,64.493Z" transform="translate(1909.447 3227.632)" fill="#8fd1db" opacity="0.4"/>
      <path id="Caminho_3-2" data-name="Caminho 3" d="M1519.553,42.927C423.661,112.065,515.977.766-78.822,51.915c-3.655,3.231,0,302.4,0,302.4H1519.553S1519.082,41.311,1519.553,42.927Z" transform="translate(1988.447 3240.878)" fill="#8fd1db" opacity="0.4"/>
      <path id="Caminho_1-3" data-name="Caminho 1" d="M0-3.247c689.667-31.465,358.393,200.192,1595.529,0,3.682,2.938,0,356.442,0,356.442H0S.475-4.716,0-3.247Z" transform="translate(1908.447 3242)" fill="#8fd1db" opacity="0"/>
    </g>
  </g>
</svg>
